<svg id="Layer_1" data-name="Layer 1" xmlns="http://www.w3.org/2000/svg" viewBox="0 0 188.09 194.4"><defs><style>.cls-1{fill:#28aee6;}.cls-2{fill:#fcdfd4;}.cls-3{fill:#fbb000;}.cls-4{fill:#db7a16;}.cls-5{fill:#fff;}.cls-6{fill:#45b9e9;}</style></defs><title>success</title><path id="path12661" class="cls-1" d="M184,103.53c-6.62,29.58-26.27,64.38-29.61,93.24-5.47,47.84,9.27,76.29,33.2,91.37,30.78,19.4,82.29,10.7,109.78-32.68-38.55-2.48-34.54-44.69,7.34-115.9C292.62,155.88,271,162,254.57,154.8c4.21,2,15.79-3.51,22.08-14.7-25.73,12.47-50.71,15.7-78.3-18.37,0.71,6,3.34,16.95,8.45,19.15C193.47,141.59,183.66,124.15,184,103.53Z" transform="translate(-116.6 -103.53)"/><path id="path12663" class="cls-2" d="M202.78,149.76A29,29,0,0,0,168.37,172l0,0.1c-3.53,29.85,27.18,44,48.8,32.81,15.14,27.9,53.64,14.94,57.31-8.78a29,29,0,0,0-49.8-25.69,29.07,29.07,0,0,0-21.87-20.68h0Z" transform="translate(-116.6 -103.53)"/><path id="path12665" class="cls-3" d="M160.78,204.18c-28.13-36.83-17.47-49-8-61.92-13.58,1.5-33.8,11.42-24.06,39,0,0-7.23-6.95-4.26-19.23-18.25,11.91-4.11,62.72,36.65,67.15C175.23,224.76,165.29,204.69,160.78,204.18Z" transform="translate(-116.6 -103.53)"/><path id="path12667" class="cls-4" d="M214.31,189.53L226.49,192l-8.72,9.69Z" transform="translate(-116.6 -103.53)"/><path id="path12669" d="M236.15,185.54c-2.17-1.87-2.15-.09-2.59.91,1.69,4.84,6.24,8.89,11.77,10.58A17.88,17.88,0,0,0,263,192.87c-0.3-.86.65-2.41-1.88-2a14.92,14.92,0,0,1-15,3.55C241.39,193,237.48,189.35,236.15,185.54Z" transform="translate(-116.6 -103.53)"/><path id="rect12671" class="cls-5" d="M200.13,158a17.75,17.75,0,1,1-21.43,13.08A17.71,17.71,0,0,1,200.13,158Z" transform="translate(-116.6 -103.53)"/><path id="rect12673" d="M198.46,164.85a10.68,10.68,0,1,1-12.89,7.87A10.66,10.66,0,0,1,198.46,164.85Z" transform="translate(-116.6 -103.53)"/><path id="rect12675" class="cls-5" d="M205.38,167.75a3.87,3.87,0,1,1-4.67,2.85A3.86,3.86,0,0,1,205.38,167.75Z" transform="translate(-116.6 -103.53)"/><path id="rect12677" class="cls-5" d="M188.23,179.44a2.09,2.09,0,1,1-2.52,1.54A2.09,2.09,0,0,1,188.23,179.44Z" transform="translate(-116.6 -103.53)"/><path id="path12679" class="cls-3" d="M261.22,236.12c17.8,25.57,17.57,45,5.49,56.22,12.55-1.72,24-22.25,18.5-31.86-0.69-.48,3.24-0.6,2.44,9.85,12.9-9.06,14.71-38.61-8.47-46.16-3.48-2.28-19.75.4-18,12h0Z" transform="translate(-116.6 -103.53)"/><path id="path12681" class="cls-6" d="M167,227.94c-9.4,27.34,28.8,63.43,44,61.79,54-6.65,66.24-72.48,1.83-62.25-12.62-6.65-33.8-20.56-45.84.46h0Z" transform="translate(-116.6 -103.53)"/><path id="rect12781" class="cls-5" d="M253.92,170.73a17.75,17.75,0,1,1-21.43,13.08A17.72,17.72,0,0,1,253.92,170.73Z" transform="translate(-116.6 -103.53)"/><path id="rect12783" d="M252.25,177.61a10.68,10.68,0,1,1-12.89,7.87A10.66,10.66,0,0,1,252.25,177.61Z" transform="translate(-116.6 -103.53)"/><path id="rect12785" class="cls-5" d="M259.17,180.5a3.87,3.87,0,1,1-4.67,2.85A3.86,3.86,0,0,1,259.17,180.5Z" transform="translate(-116.6 -103.53)"/><path id="rect12787" class="cls-5" d="M242,192.19a2.09,2.09,0,1,1-2.52,1.54A2.09,2.09,0,0,1,242,192.19Z" transform="translate(-116.6 -103.53)"/></svg>