<svg id="Layer_1" data-name="Layer 1" xmlns="http://www.w3.org/2000/svg" viewBox="0 0 121.77 115.32"><defs><style>.cls-1{fill:#fff;}.cls-2{fill:#28aee6;}.cls-3{fill:#fcdfd4;}.cls-4{fill:#f37b66;}.cls-5{fill:#db7a16;}</style></defs><title>card-back</title><path id="rect39821" class="cls-1" d="M159,147.9h91.31a15.2,15.2,0,0,1,15.23,15.23V248a15.2,15.2,0,0,1-15.23,15.23H159A15.2,15.2,0,0,1,143.78,248V163.13A15.2,15.2,0,0,1,159,147.9Z" transform="translate(-143.78 -147.9)"/><path id="path12045" class="cls-2" d="M176.61,157.34c0,16-6.07,36.08-4.45,51.29,2.71,25.2,13.56,38.1,27.58,43.09,20,9.75,41.48-17.3,36.4-36.62-2.41-10-.95-29.68,6.6-53.17-4.31,9.77-14.72,15.39-24,13.6,2.4,0.56,7.7-3.62,9.64-10.09-11.77,9.37-24.22,13.91-42.32-.4,1.05,3,3.67,8.32,6.55,8.86-6.76,1.9-13.81-5.92-16-16.55h0Z" transform="translate(-143.78 -147.9)"/><path id="path12047" class="cls-3" d="M191.59,178.91a15.24,15.24,0,0,0-15.1,15.39v0.05c1.63,15.73,19,19.48,28.84,11.22,11,12.58,29.26,1.49,28.41-11.12A15.28,15.28,0,0,0,205.2,187a15.3,15.3,0,0,0-13.62-8.1h0Z" transform="translate(-143.78 -147.9)"/><path id="path12049" class="cls-4" d="M176.84,213.49c-1.12,19.9,4.77,24.37,11.7,27.52-4,0-14.42.78-17.71-10.58a7.15,7.15,0,0,0,3.22,7.12c-9.62,2.13-17.07-17.6-3.29-31.7C177,202.77,178.36,211.92,176.84,213.49Z" transform="translate(-143.78 -147.9)"/><path id="path12051" class="cls-5" d="M202.1,198l6.54-.15-3.36,6Z" transform="translate(-143.78 -147.9)"/><path id="rect12055" class="cls-1" d="M191.18,183.43a9.34,9.34,0,1,1-9.5,9.19A9.32,9.32,0,0,1,191.18,183.43Z" transform="translate(-143.78 -147.9)"/><path id="rect12057" d="M191.12,187.16a5.62,5.62,0,1,1-5.71,5.53A5.61,5.61,0,0,1,191.12,187.16Z" transform="translate(-143.78 -147.9)"/><path id="rect12059" class="cls-1" d="M195,187.84a2,2,0,1,1-2.07,2A2,2,0,0,1,195,187.84Z" transform="translate(-143.78 -147.9)"/><path id="rect12061" class="cls-1" d="M187.55,195.83a1.1,1.1,0,1,1-1.12,1.08A1.1,1.1,0,0,1,187.55,195.83Z" transform="translate(-143.78 -147.9)"/><path id="path12114" class="cls-4" d="M232.32,213.07c1.43,19.88-4.4,24.44-11.28,27.7,4,0,14.43.56,17.55-10.85a7.15,7.15,0,0,1-3.11,7.17c9.65,2,16.8-17.86,2.81-31.74-6.3-3-7.52,6.18-6,7.72h0Z" transform="translate(-143.78 -147.9)"/><path id="rect12116" class="cls-1" d="M219.87,183.22a9.34,9.34,0,1,1-9.5,9.19A9.32,9.32,0,0,1,219.87,183.22Z" transform="translate(-143.78 -147.9)"/><path id="rect12118" d="M219.81,186.94a5.62,5.62,0,1,1-5.71,5.53A5.61,5.61,0,0,1,219.81,186.94Z" transform="translate(-143.78 -147.9)"/><path id="rect12120" class="cls-1" d="M223.7,187.63a2,2,0,1,1-2.07,2A2,2,0,0,1,223.7,187.63Z" transform="translate(-143.78 -147.9)"/><path id="rect12122" class="cls-1" d="M216.24,195.61a1.1,1.1,0,1,1-1.12,1.08A1.1,1.1,0,0,1,216.24,195.61Z" transform="translate(-143.78 -147.9)"/></svg>