<svg id="Layer_1" data-name="Layer 1" xmlns="http://www.w3.org/2000/svg" viewBox="0 0 121.8 115.31"><defs><style>.cls-1{fill:#815682;}.cls-2{fill:#ac547a;}.cls-3{fill:#d7543d;}.cls-4{fill:#fd7512;}.cls-5{fill:#fbb03b;}.cls-6{fill:#38b994;}.cls-7{fill:#3dd0ec;}.cls-8{fill:#28aee6;}.cls-9{fill:#fff;}</style></defs><title>card-back</title><path id="path11490" class="cls-1" d="M180.06,148.48a68.55,68.55,0,0,0-1.65,15c0,24.17,12,43.62,27,43.62s27-19.45,27-43.62a68.58,68.58,0,0,0-1.62-15H180.06Z" transform="translate(-144.48 -148.48)"/><path id="path11492" class="cls-2" d="M159.71,148.48a15.19,15.19,0,0,0-15.23,15.23V181.8a67.17,67.17,0,0,0,11.41,14.27c17.45,16.72,39.84,21.5,50.17,10.71s4.58-32.91-12.88-49.63a68.82,68.82,0,0,0-11.1-8.68H159.71Z" transform="translate(-144.48 -148.48)"/><path id="path11494" class="cls-3" d="M162.7,179.19a67.13,67.13,0,0,0-18.22,2.45v49a67.07,67.07,0,0,0,18.22,2.48c24.17,0,43.62-12,43.62-27S186.86,179.19,162.7,179.19Z" transform="translate(-144.48 -148.48)"/><path id="path11496" class="cls-4" d="M190.29,199.6c-10.61.15-23.47,5.83-34.46,16.18a67.37,67.37,0,0,0-11.35,13.86v18.92a15.19,15.19,0,0,0,15.23,15.23h21.59A68.47,68.47,0,0,0,192.77,255c17.59-16.57,23.53-38.66,13.29-49.53-3.84-4.08-9.4-6-15.77-5.91h0Z" transform="translate(-144.48 -148.48)"/><path id="path11498" class="cls-5" d="M205.36,205.19c-14.94,0-27,19.45-27,43.62a68.56,68.56,0,0,0,1.65,15H230.7a68.59,68.59,0,0,0,1.62-15C232.32,224.65,220.3,205.19,205.36,205.19Z" transform="translate(-144.48 -148.48)"/><path id="path11500" class="cls-6" d="M218.94,199.73c-5.71.18-10.69,2-14.24,5.75-10.33,10.79-4.58,32.94,12.88,49.66a68.73,68.73,0,0,0,11.06,8.65H251a15.22,15.22,0,0,0,15.26-15.23V230.5a67,67,0,0,0-11.41-14.31c-11.46-11-25-16.81-35.93-16.47h0Z" transform="translate(-144.48 -148.48)"/><path id="path11502" class="cls-7" d="M248.06,179.19c-24.17,0-43.62,12-43.62,27s19.45,27,43.62,27a67.07,67.07,0,0,0,18.22-2.48v-49A67.13,67.13,0,0,0,248.06,179.19Z" transform="translate(-144.48 -148.48)"/><path id="path11504" class="cls-8" d="M229.46,148.48c-18.34,11-28.6,40.89-24.77,58.31,24.71,9.07,49.33-4.31,61.58-24.16V163.71A15.22,15.22,0,0,0,251,148.48H229.46Z" transform="translate(-144.48 -148.48)"/><path id="path11569" class="cls-9" d="M180.29,200.59l18.89-.49,6.08-17.88L211.58,200l18.88,0.3-15,11.49,5.59,18-15.57-10.65L190,230.05l5.36-18.11-15.1-11.35" transform="translate(-144.48 -148.48)"/></svg>