<svg id="Layer_1" data-name="Layer 1" xmlns="http://www.w3.org/2000/svg" viewBox="0 0 154.22 175.81"><defs><style>.cls-1{fill:#fff;fill-opacity:0.05;}.cls-2{fill:#28aee6;}.cls-3{fill:#fcdfd4;}.cls-4{fill:#db7a16;}.cls-5{fill:#45b9e9;}.cls-6{fill:#fbb000;}</style></defs><title>pending</title><path id="path54653" class="cls-1" d="M213.73,150.88V219.5l14.07,24.89,52.75-93.5H213.73Z" transform="translate(-132.74 -113.7)"/><path id="path12801" class="cls-2" d="M162.37,113.7c-2.34,28.27-16.09,63-15.48,90.23,1.07,45.05,18.39,69.53,42.5,80.44,31,14,77.65-.65,97.57-44.38-36.06,2.65-37.75-37-8.07-108.38-9.08,16.67-28.37,25.09-44.5,20.55,4.16,1.35,14.18-5.28,18.58-16.46-22.25,14.87-45,21.06-74.94-7,1.42,5.46,5.27,15.28,10.29,16.67-12.27,2.36-23.6-12.54-26-31.7h0Z" transform="translate(-132.74 -113.7)"/><path id="path12803" class="cls-3" d="M185.74,154.14a27.09,27.09,0,0,0-29,25l0,0.09c0.56,28.12,30.85,37.33,49.45,24.15,17.62,23.92,51.64,7,52-15.49a27.18,27.18,0,0,0-49.46-17.42,27.21,27.21,0,0,0-22.93-16.36h0Z" transform="translate(-132.74 -113.7)"/><path id="path12807" class="cls-4" d="M201.53,189.53l11.61,0.7-6.84,10.1Z" transform="translate(-132.74 -113.7)"/><path id="path12809" d="M221.26,183c-2.25-1.45-2,.19-2.28,1.18,2.19,4.27,6.93,7.44,12.27,8.3a16.73,16.73,0,0,0,15.81-6.12c-0.39-.76.3-2.32-2-1.64a14,14,0,0,1-13.42,5.21C227.07,189.22,223,186.38,221.26,183Z" transform="translate(-132.74 -113.7)"/><path id="path12821" class="cls-5" d="M162.57,231.21c-5.21,26.55,34.83,55.1,48.73,51.63,49.23-13.1,52.1-75.69-6.3-57.94-12.55-4.54-34-14.73-42.43,6.31h0Z" transform="translate(-132.74 -113.7)"/><path id="path12931" d="M171,173.6c-1.91-1.88-2-.22-2.47.69,1.27,4.62,5.26,8.71,10.31,10.63a16.73,16.73,0,0,0,16.73-2.75c-0.23-.82.76-2.21-1.62-2a14,14,0,0,1-14.2,2.35C175.43,180.86,172,177.24,171,173.6Z" transform="translate(-132.74 -113.7)"/><path id="path13036" class="cls-6" d="M255.46,221.34c2,27.46-6.07,33.76-15.58,38.26,5.5,0,19.93.77,24.24-15a9.87,9.87,0,0,1-4.3,9.91c13.33,2.73,23.21-24.67,3.88-43.85C255,206.53,253.33,219.21,255.46,221.34Z" transform="translate(-132.74 -113.7)"/><path id="path13038" class="cls-6" d="M151.81,221.34c-2,27.46,6.07,33.76,15.58,38.26-5.5,0-19.93.77-24.24-15a9.88,9.88,0,0,0,4.29,9.91c-13.33,2.73-23.21-24.67-3.88-43.85C152.27,206.53,153.95,219.21,151.81,221.34Z" transform="translate(-132.74 -113.7)"/></svg>